<?xml version="1.0" encoding="UTF-8"?>
<svg version="1.1" xmlns="http://www.w3.org/2000/svg" width="1000" height="345">
<path d="M0 0 C2.13416058 -0.00322082 4.26832094 -0.00658549 6.40248108 -0.01008606 C10.84588127 -0.01603286 15.28926213 -0.01793023 19.73266602 -0.01733398 C25.41386135 -0.01723182 31.09493323 -0.03095941 36.77609921 -0.04810619 C41.1710924 -0.05923512 45.56605563 -0.06125303 49.96106148 -0.06072426 C52.0561421 -0.06190011 54.15122361 -0.06629961 56.24629021 -0.07405663 C59.1720131 -0.08388839 62.09746583 -0.08096744 65.02319336 -0.07495117 C66.30523399 -0.08338043 66.30523399 -0.08338043 67.61317444 -0.09197998 C73.64609398 -0.06056442 78.93949277 0.81823207 84.638381 2.92092609 C85.28494184 3.00245017 85.93150267 3.08397425 86.59765625 3.16796875 C87.04290083 2.70172844 87.48814541 2.23548813 87.94688225 1.75511932 C90.45694342 -0.65820014 92.5857965 -0.21555378 96.01004028 -0.22644043 C96.6637054 -0.23253153 97.31737051 -0.23862264 97.99084365 -0.24489832 C100.18564038 -0.26157399 102.37985981 -0.25674617 104.57470703 -0.25195312 C106.14673975 -0.25929119 107.71876708 -0.26787666 109.29078674 -0.27761841 C113.56591794 -0.29987977 117.84085664 -0.3027625 122.11603785 -0.3008709 C125.68677418 -0.30075132 129.25746955 -0.30931093 132.8281945 -0.31764841 C141.257561 -0.33690204 149.68682847 -0.33976044 158.11621094 -0.33300781 C166.80212247 -0.32637721 175.48760823 -0.34918717 184.17343342 -0.38632154 C191.63516881 -0.41706116 199.09676761 -0.42837361 206.55856502 -0.42448473 C211.01291959 -0.42242027 215.46694348 -0.42784818 219.92123795 -0.45237732 C224.11569847 -0.47471026 228.30947063 -0.47271277 232.50393486 -0.4524498 C234.03854219 -0.44905038 235.57319641 -0.45408267 237.1077404 -0.46843338 C245.55072312 -0.54190295 252.78094447 -0.3896099 259.59765625 5.16796875 C265.95148897 11.54325189 266.90441002 15.9241623 266.91235352 24.81469727 C266.71598325 36.68405982 262.67684069 47.29500172 258.52392578 58.25732422 C255.35999607 66.63831883 252.5706905 75.1373403 249.79418945 83.65332031 C247.88947418 89.45546854 245.85212727 95.14209148 243.5378418 100.79272461 C241.96153286 104.77504339 240.66567414 108.8444537 239.34765625 112.91796875 C236.8692559 120.46640998 234.26857121 127.95809184 231.53515625 135.41796875 C231.20008057 136.33255859 230.86500488 137.24714844 230.51977539 138.18945312 C229.86032612 139.98833159 229.20074263 141.78716087 228.54101562 143.5859375 C224.96936032 153.36177251 221.4064102 163.14022439 218.59765625 173.16796875 C219.22929688 172.40355469 219.8609375 171.63914063 220.51171875 170.8515625 C225.74111462 164.57350692 231.10785619 158.47985458 236.72265625 152.54296875 C241.52392865 147.46288357 246.0673961 142.27578072 250.4296875 136.80859375 C253.64595291 132.89112453 257.08270083 129.19346066 260.53125 125.48046875 C262.71135262 123.14994184 262.71135262 123.14994184 264.59765625 120.16796875 C265.25765625 120.16796875 265.91765625 120.16796875 266.59765625 120.16796875 C266.81292969 119.63300781 267.02820313 119.09804687 267.25 118.546875 C269.09006693 115.29875686 271.59564171 112.78322882 274.16015625 110.10546875 C279.01201502 104.96824967 283.51110147 99.69484585 287.85546875 94.1171875 C288.71785156 93.15232422 288.71785156 93.15232422 289.59765625 92.16796875 C290.25765625 92.16796875 290.91765625 92.16796875 291.59765625 92.16796875 C291.82324219 91.62269531 292.04882812 91.07742187 292.28125 90.515625 C293.98904982 87.46996419 296.26795847 85.11446829 298.66015625 82.60546875 C302.18859057 78.84413258 305.54437474 75.04817151 308.72265625 70.98046875 C312.93438695 65.7521134 317.55384079 60.9905169 322.28515625 56.23046875 C323.01041504 55.49610596 323.73567383 54.76174316 324.48291016 54.00512695 C338.24286926 40.32257749 355.81757459 33.9309521 375.03515625 33.60546875 C382.21050447 33.65281062 387.63803362 34.95829692 393.59765625 39.16796875 C394.50515625 39.74546875 395.41265625 40.32296875 396.34765625 40.91796875 C403.47544018 48.04575268 405.87803305 54.59240046 405.91894531 64.55908203 C405.75241845 74.67446353 402.59055485 83.845072 398.81201172 93.14892578 C397.37315493 96.72610775 395.97991544 100.3201445 394.59375 103.91796875 C394.31559952 104.63989914 394.03744904 105.36182953 393.75086975 106.1056366 C392.84482727 108.45943869 391.93985409 110.81364952 391.03515625 113.16796875 C390.71995026 113.98780243 390.40474426 114.80763611 390.07998657 115.65231323 C384.54700553 130.04728873 379.04733324 144.45494327 373.56399536 158.86889648 C372.71416839 161.10276215 371.86397138 163.33648709 371.01339722 165.57006836 C369.81489874 168.71808555 368.61811584 171.86674933 367.421875 175.015625 C367.0641803 175.9546315 366.7064856 176.893638 366.33795166 177.86109924 C364.66531561 182.27007806 363.04228484 186.67743092 361.59765625 191.16796875 C366.74244372 186.04868288 371.88319056 180.92536466 377.02124023 175.79931641 C378.76707212 174.05849154 380.51380323 172.31856797 382.26147461 170.57958984 C384.78349975 168.06979009 387.30219821 165.55669158 389.8203125 163.04296875 C390.59351334 162.2749292 391.36671417 161.50688965 392.16334534 160.71557617 C395.59159199 157.28767933 398.93504376 153.83821112 402.09936523 150.1640625 C405.96776142 145.67440369 410.13633637 141.52158585 414.34765625 137.35546875 C415.16459961 136.54231201 415.98154297 135.72915527 416.82324219 134.89135742 C420.28460667 131.44619535 423.75194216 128.00706585 427.21875 124.56738281 C429.76380813 122.04050367 432.30578756 119.5105556 434.84765625 116.98046875 C435.62077148 116.21565186 436.39388672 115.45083496 437.19042969 114.6628418 C441.35369535 110.51821898 445.33849296 106.28857173 449.15353394 101.82025146 C451.98858838 98.57654322 455.30052563 95.92146113 458.59765625 93.16796875 C459.36078125 92.46671875 460.12390625 91.76546875 460.91015625 91.04296875 C473.51295844 82.25031606 487.71099575 81.6806074 502.59765625 83.16796875 C506.97854108 84.50420588 510.07917734 86.27976854 513.59765625 89.16796875 C514.190625 89.55082031 514.78359375 89.93367188 515.39453125 90.328125 C521.08094566 94.25512901 523.9133399 100.66195836 525.19921875 107.25 C526.31280562 117.95856213 524.79566393 127.55000153 520.71459961 137.43969727 C518.77323663 142.18171503 517.01297378 146.99234856 515.22265625 151.79296875 C514.62578003 153.38806274 514.62578003 153.38806274 514.0168457 155.01538086 C512.37378656 159.40697518 510.73342119 163.79954354 509.1015625 168.1953125 C506.65782119 174.75788189 504.16494445 181.29920269 501.6328125 187.828125 C501.23143318 188.86323967 501.23143318 188.86323967 500.82194519 189.91926575 C499.46217466 193.42445368 498.10014417 196.92874435 496.73510742 200.43188477 C496.22572841 201.74234238 495.71636889 203.05280756 495.20703125 204.36328125 C494.75295898 205.52875488 494.29888672 206.69422852 493.83105469 207.89501953 C492.67400233 210.96537659 491.63140303 214.05443088 490.59765625 217.16796875 C489.70864914 219.594556 488.81071944 222.015834 487.8984375 224.43359375 C487.50885612 225.46930511 487.50885612 225.46930511 487.11140442 226.52593994 C485.16102001 231.70039512 483.18634464 236.86539734 481.203125 242.02734375 C480.92195831 242.75924927 480.64079163 243.49115479 480.35110474 244.24523926 C479.20131264 247.23692813 478.05111424 250.22845346 476.89770508 253.21875 C476.03908073 255.4458143 475.18336863 257.67397939 474.328125 259.90234375 C473.93756172 260.91164948 473.93756172 260.91164948 473.53910828 261.94134521 C472.36260698 265.012986 471.39762924 267.96807678 470.59765625 271.16796875 C502.27765625 271.49796875 533.95765625 271.82796875 566.59765625 272.16796875 C567.59765625 275.16796875 567.59765625 275.16796875 566.48828125 277.9453125 C565.67617187 279.50958984 565.67617187 279.50958984 564.84765625 281.10546875 C564.3165625 282.14574219 563.78546875 283.18601562 563.23828125 284.2578125 C561.82923861 286.75718575 560.4882963 289.01243132 558.59765625 291.16796875 C557.93765625 291.16796875 557.27765625 291.16796875 556.59765625 291.16796875 C556.41203125 291.72484375 556.22640625 292.28171875 556.03515625 292.85546875 C550.95693463 301.02478179 538.9247427 304.75837278 530.09765625 306.91796875 C517.97971858 309.66044938 505.58378827 309.31654282 493.23828125 309.30078125 C491.36179593 309.30145654 489.4853107 309.30242844 487.60882568 309.30368042 C483.68875286 309.30514824 479.76870295 309.30303339 475.84863281 309.29833984 C470.86530851 309.29265899 465.88203827 309.29591701 460.89871597 309.30191231 C457.02585455 309.3055563 453.15300557 309.30436159 449.28014374 309.30178452 C447.44484195 309.30112499 445.60953898 309.3019089 443.77423859 309.30426407 C405.83204029 309.34226346 405.83204029 309.34226346 396.03515625 301.73046875 C390.80575264 296.2328906 389.60839961 291.65608975 389.59765625 284.16796875 C390.6090854 272.0859878 395.58539333 260.29402502 400.30859375 249.25390625 C401.93998661 245.34845062 403.40610358 241.38981862 404.87695312 237.42163086 C407.69483602 229.85248431 410.61598724 222.32345535 413.53515625 214.79296875 C413.79672516 214.11808411 414.05829407 213.44319946 414.32778931 212.74786377 C416.08277898 208.22059753 417.83981259 203.69412756 419.59765625 199.16796875 C420.00322754 198.12366699 420.40879883 197.07936523 420.82666016 196.00341797 C422.74808226 191.05739339 424.67152381 186.11216084 426.59765625 181.16796875 C426.26765625 180.83796875 425.93765625 180.50796875 425.59765625 180.16796875 C424.93121094 180.895 424.26476562 181.62203125 423.578125 182.37109375 C423.13823242 182.85094727 422.69833984 183.33080078 422.24511719 183.82519531 C421.25997357 184.89995735 420.27495031 185.97482971 419.29003906 187.04980469 C416.75080156 189.82090661 414.20987848 192.59040824 411.6640625 195.35546875 C411.19137939 195.86948242 410.71869629 196.38349609 410.23168945 196.91308594 C408.92199039 198.33714397 407.61141217 199.7603933 406.30078125 201.18359375 C404.2417579 203.43746272 402.23224286 205.73033812 400.23046875 208.03515625 C396.65775525 212.1315574 392.95768404 216.0948429 389.22265625 220.04296875 C383.06019638 226.58754966 376.94174433 233.16051464 371.05004883 239.9519043 C366.89840117 244.7307417 362.63450253 249.38142096 358.28515625 253.98046875 C350.55545193 262.19137008 342.91648235 270.46779128 335.52734375 278.98828125 C332.51563046 282.39017601 329.42484146 285.71987496 326.32836914 289.04467773 C324.2016697 291.34353676 322.33999733 293.55445713 320.59765625 296.16796875 C319.93765625 296.16796875 319.27765625 296.16796875 318.59765625 296.16796875 C318.26765625 297.15796875 317.93765625 298.14796875 317.59765625 299.16796875 C307.95280384 307.86482285 295.04212582 312.51147513 282.21875 312.3828125 C272.24315552 311.79094875 263.62215136 309.40016053 256.0234375 302.80078125 C251.78139009 297.94276532 249.94182143 291.04053376 250.36157227 284.69189453 C251.26006706 275.08626973 253.58172269 266.783604 257.34765625 257.91796875 C258.19863847 255.87193435 259.0475635 253.82504323 259.89453125 251.77734375 C260.33240967 250.72095703 260.77028809 249.66457031 261.22143555 248.57617188 C262.99352603 244.18759939 264.65021819 239.76075951 266.30006409 235.32513428 C269.058082 227.9118793 271.91554023 220.53861453 274.78515625 213.16796875 C275.21545639 212.0609108 275.21545639 212.0609108 275.65444946 210.93148804 C279.60821625 200.76222548 283.60418503 190.61013687 287.62890625 180.46875 C288.05633621 179.39132538 288.48376617 178.31390076 288.92414856 177.2038269 C291.04156206 171.86807974 293.16228891 166.53368182 295.2878418 161.20117188 C296.07216431 159.227889 296.85642809 157.25458279 297.640625 155.28125 C297.99632568 154.39198318 298.35202637 153.50271637 298.71850586 152.58650208 C300.86811078 147.1694809 302.81856537 141.71784409 304.59765625 136.16796875 C300.28079747 140.95308862 296.22733625 145.88589544 292.28515625 150.98046875 C288.06575577 156.42116012 283.61284162 161.54184359 278.9296875 166.59375 C276.01817285 169.807633 273.3359206 173.16666982 270.65625 176.57421875 C267.54157865 180.49858645 264.3126259 184.32568794 261.09765625 188.16796875 C258.76625901 190.96564544 256.45907305 193.78108526 254.16015625 196.60546875 C250.86704136 200.64069403 247.52946168 204.63397709 244.16015625 208.60546875 C234.70702016 219.67787201 234.70702016 219.67787201 225.59765625 231.03125 C225.0975 231.67779541 224.59734375 232.32434082 224.08203125 232.99047852 C223.10743196 234.25601492 222.13847783 235.52592287 221.17578125 236.80053711 C220.02840534 238.29233671 218.81825436 239.73546124 217.59765625 241.16796875 C216.93765625 241.16796875 216.27765625 241.16796875 215.59765625 241.16796875 C215.22447266 242.00521484 215.22447266 242.00521484 214.84375 242.859375 C213.38151227 245.56841105 211.62921612 247.73761195 209.66015625 250.10546875 C208.85835937 251.07226562 208.0565625 252.0390625 207.23046875 253.03515625 C204.04196478 256.83877477 200.82875143 260.62151618 197.61328125 264.40234375 C194.90542709 267.59428357 192.25562628 270.82074527 189.66015625 274.10546875 C185.83652351 278.93448733 181.83765249 283.60174393 177.80883789 288.25952148 C177.3214917 288.82356689 176.83414551 289.3876123 176.33203125 289.96875 C175.62203979 290.78629761 175.62203979 290.78629761 174.89770508 291.62036133 C173.75956123 292.97523342 172.70037629 294.3956355 171.65625 295.82421875 C169.11292101 298.71984947 166.24296956 300.51202319 162.91015625 302.35546875 C162.28657227 302.70424072 161.66298828 303.0530127 161.02050781 303.41235352 C150.01176469 309.36806646 137.61009961 309.33048237 125.33984375 309.265625 C124.31077911 309.26421005 123.28171448 309.2627951 122.22146606 309.26133728 C118.97183176 309.2557913 115.72226932 309.24324921 112.47265625 309.23046875 C110.25390725 309.22544676 108.03515716 309.22088508 105.81640625 309.21679688 C100.41013221 309.20583964 95.00389937 309.18915633 89.59765625 309.16796875 C88.59765625 307.16796875 88.59765625 307.16796875 89.53125 304.0625 C90.02540387 302.69921065 90.52739144 301.33874737 91.03515625 299.98046875 C91.59976484 298.42737629 92.16352232 296.87397424 92.7265625 295.3203125 C93.03094238 294.48612793 93.33532227 293.65194336 93.64892578 292.79248047 C95.30021558 288.22445028 96.88322148 283.63280747 98.47265625 279.04296875 C99.15740196 277.07156243 99.84229951 275.10020885 100.52734375 273.12890625 C100.86991211 272.14245117 101.21248047 271.15599609 101.56542969 270.13964844 C103.57679981 264.34910985 105.59143228 258.55970539 107.60595703 252.77026367 C109.22531745 248.11587802 110.84322845 243.4610033 112.45703125 238.8046875 C120.2094065 216.45069225 128.11456354 194.15030971 136.03515625 171.85546875 C145.33781379 145.6664885 154.53603688 119.44135139 163.59765625 93.16796875 C165.20064849 88.521729 166.8050814 83.8759894 168.41015625 79.23046875 C168.77141602 78.18221924 169.13267578 77.13396973 169.50488281 76.05395508 C169.85131836 75.05130615 170.19775391 74.04865723 170.5546875 73.015625 C170.8535083 72.14945557 171.1523291 71.28328613 171.46020508 70.39086914 C173.13781839 65.6374514 174.87500792 60.90525166 176.59765625 56.16796875 C158.44765625 56.16796875 140.29765625 56.16796875 121.59765625 56.16796875 C121.26765625 58.80796875 120.93765625 61.44796875 120.59765625 64.16796875 C117.04062134 78.09611749 108.61937615 89.31085588 96.59765625 97.16796875 C80.29948039 105.80657786 61.6396074 109.56918075 43.55078125 104.2890625 C36.34430676 101.55327126 28.40575757 98.29276403 22.59765625 93.16796875 C22.59765625 92.50796875 22.59765625 91.84796875 22.59765625 91.16796875 C22.01886719 90.92175781 21.44007813 90.67554687 20.84375 90.421875 C13.33038176 86.22745551 7.55000526 77.05719736 4.88671875 69.0234375 C2.69893015 60.22472248 2.0519031 51.09898695 3.59765625 42.16796875 C-7.63693928 39.67139196 -19.48675787 40.5801604 -29.6796875 46.03125 C-34.08084318 48.93541395 -36.84316496 53.52763582 -37.921875 58.62109375 C-39.41988856 72.9221299 -35.04030331 86.35563689 -30.32373047 99.66943359 C-29.52425098 101.92670094 -28.74128791 104.18918156 -27.9609375 106.453125 C-25.36962459 113.91869155 -22.61611146 121.26762568 -19.51464844 128.53955078 C-4.65463426 163.65432529 8.38964136 204.38185903 -5.390625 241.85546875 C-14.65169604 263.75105939 -31.0107632 279.50293655 -51.40234375 291.16796875 C-52.0890918 291.57096191 -52.77583984 291.97395508 -53.48339844 292.38916016 C-63.87181002 298.44211514 -74.53438585 302.65934945 -85.953125 306.359375 C-88.29544366 307.13267637 -90.61471208 307.95232338 -92.93359375 308.79296875 C-152.11145607 330.0196682 -226.3473237 325.34766834 -285.40234375 306.16796875 C-286.94921875 305.71357422 -286.94921875 305.71357422 -288.52734375 305.25 C-309.06715261 298.99519118 -329.77719543 286.75278725 -343.40234375 270.16796875 C-344.25119141 269.18183594 -344.25119141 269.18183594 -345.1171875 268.17578125 C-355.19615223 255.81430288 -358.57783624 239.14512703 -357.0390625 223.5546875 C-355.61701446 212.48355955 -352.509208 201.92533425 -345.40234375 193.16796875 C-344.63277344 192.06388672 -344.63277344 192.06388672 -343.84765625 190.9375 C-343.37070312 190.35355469 -342.89375 189.76960937 -342.40234375 189.16796875 C-341.74234375 189.16796875 -341.08234375 189.16796875 -340.40234375 189.16796875 C-340.19609375 188.61109375 -339.98984375 188.05421875 -339.77734375 187.48046875 C-332.75363138 175.66786158 -315.69796493 170.43879292 -303.40234375 166.16796875 C-302.6242334 165.83853271 -301.84612305 165.50909668 -301.04443359 165.16967773 C-296.05178247 163.27678847 -290.76490743 162.56162203 -285.52734375 161.60546875 C-284.40714844 161.38439453 -283.28695312 161.16332031 -282.1328125 160.93554688 C-274.68504139 159.57355116 -267.39006157 158.91515241 -259.83422852 158.6171875 C-258.33020367 158.55537245 -258.33020367 158.55537245 -256.79579449 158.49230862 C-239.49625808 157.82251728 -222.18145015 157.82604076 -204.87133789 157.76293945 C-200.39937705 157.74491897 -195.92802233 157.70970871 -191.45629883 157.66040039 C-186.00269237 157.60041099 -180.54965992 157.56950429 -175.09573936 157.55976677 C-173.03078119 157.55121073 -170.96583863 157.53238901 -168.90107155 157.50302315 C-166.03466457 157.46432662 -163.1705588 157.46304021 -160.30395508 157.47094727 C-159.45679932 157.45094666 -158.60964355 157.43094604 -157.73681641 157.41033936 C-155.46815861 157.43853154 -153.57635956 157.51720022 -151.40234375 158.16796875 C-148.90858459 161.09005737 -148.90858459 161.09005737 -147.40234375 164.16796875 C-147.07186035 164.80935791 -146.74137695 165.45074707 -146.40087891 166.11157227 C-146.04968994 166.94579712 -146.04968994 166.94579712 -145.69140625 167.796875 C-145.41876953 168.43351074 -145.14613281 169.07014648 -144.86523438 169.72607422 C-144.58873047 170.38752441 -144.31222656 171.04897461 -144.02734375 171.73046875 C-143.42718961 173.14122496 -142.82560278 174.55137247 -142.22265625 175.9609375 C-141.92262695 176.6626709 -141.62259766 177.3644043 -141.31347656 178.08740234 C-139.44987676 182.34292151 -137.40274526 186.51408198 -135.37109375 190.69140625 C-135.05140625 191.50867188 -134.73171875 192.3259375 -134.40234375 193.16796875 C-134.73234375 193.82796875 -135.06234375 194.48796875 -135.40234375 195.16796875 C-136.35066574 195.1760556 -137.29898773 195.18414246 -138.27604675 195.19247437 C-147.26367433 195.27034863 -156.25115816 195.35818767 -165.23859692 195.45549583 C-169.85784661 195.50519654 -174.47707629 195.55152629 -179.09643555 195.58984375 C-183.56398285 195.62703111 -188.03135108 195.67347604 -192.49874306 195.72603226 C-194.19332005 195.74440027 -195.88793517 195.75957124 -197.58257103 195.77131271 C-218.39899913 195.9205481 -239.84477829 198.73215372 -256.33203125 212.81640625 C-262.25089756 219.08863772 -264.61796291 226.5397007 -264.96484375 235.04296875 C-264.65051836 244.6822806 -261.30548904 253.26805685 -254.6171875 260.29296875 C-245.19120626 268.27263541 -233.69613361 273.71393116 -221.96484375 277.29296875 C-221.17013672 277.54433594 -220.37542969 277.79570312 -219.55664062 278.0546875 C-195.15759956 285.63844152 -170.06678896 285.47973622 -145.40234375 279.16796875 C-144.58507812 278.98878906 -143.7678125 278.80960937 -142.92578125 278.625 C-127.21349809 274.71006657 -110.63406798 264.40468146 -101.8984375 250.74609375 C-101.40472656 249.8953125 -100.91101563 249.04453125 -100.40234375 248.16796875 C-99.91894531 247.3378125 -99.43554688 246.50765625 -98.9375 245.65234375 C-88.80017328 226.02412854 -93.12939161 200.06587487 -99.0859375 179.84765625 C-99.81828044 177.6051146 -100.60326476 175.38763262 -101.40234375 173.16796875 C-101.78519531 172.06324219 -102.16804687 170.95851562 -102.5625 169.8203125 C-104.61603044 163.94859704 -106.76381646 158.21590888 -109.37109375 152.5703125 C-111.19681808 148.31720469 -112.65790309 143.93025466 -114.18359375 139.5625 C-115.17621729 136.79778894 -116.24667029 134.11609347 -117.40234375 131.41796875 C-127.12379149 107.44889315 -133.56361407 76.76724658 -123.40234375 52.16796875 C-120.47687137 45.56958188 -117.54690872 39.31253372 -112.40234375 34.16796875 C-111.74234375 34.16796875 -111.08234375 34.16796875 -110.40234375 34.16796875 C-110.17417969 33.60464844 -109.94601562 33.04132812 -109.7109375 32.4609375 C-101.70496489 18.43256162 -79.23785688 10.74646033 -64.68652344 6.74609375 C-59.7861859 5.50582021 -54.85166868 4.44278056 -49.90234375 3.41796875 C-48.89413574 3.20688477 -47.88592773 2.99580078 -46.84716797 2.77832031 C-31.37867795 -0.24925816 -15.69513511 0.0056162 0 0 Z " fill="#010101" transform="translate(398.40234375,15.83203125)"/>
</svg>
